<?xml version="1.0" encoding="UTF-8"?>
<svg version="1.1" xmlns="http://www.w3.org/2000/svg" width="1200" height="900">
<path d="M0 0 C396 0 792 0 1200 0 C1200 297 1200 594 1200 900 C804 900 408 900 0 900 C0 603 0 306 0 0 Z " fill="#FEFEFE" transform="translate(0,0)"/>
<path d="M0 0 C99.66 0 199.32 0 302 0 C302 129.36 302 258.72 302 392 C202.34 392 102.68 392 0 392 C0 262.64 0 133.28 0 0 Z " fill="#FEFEFE" transform="translate(668,368)"/>
<path d="M0 0 C86.13 0 172.26 0 261 0 C261 41.91 261 83.82 261 127 C261.66 127.33 262.32 127.66 263 128 C264.02496493 128.8863741 265.02585732 129.80079709 266.01171875 130.73046875 C266.60533203 131.28669922 267.19894531 131.84292969 267.81054688 132.41601562 C268.42994141 133.00060547 269.04933594 133.58519531 269.6875 134.1875 C273.3390819 137.6272823 277.00337218 141.04870475 280.76953125 144.36328125 C281.31843018 144.84708252 281.8673291 145.33088379 282.43286133 145.8293457 C284.11295636 147.21232087 284.11295636 147.21232087 287 148 C287 148.66 287 149.32 287 150 C293.93 150 300.86 150 308 150 C308 169.47 308 188.94 308 209 C206.36 209 104.72 209 0 209 C0 140.03 0 71.06 0 0 Z " fill="#FEFEFE" transform="translate(618,132)"/>
<path d="M0 0 C1.32 0 2.64 0 4 0 C4 18.15 4 36.3 4 55 C114.55 55 225.1 55 339 55 C339.33 103.51 339.66 152.02 340 202 C343.96 204.97 347.92 207.94 352 211 C352.33 211.33 352.66 211.66 353 212 C369.83 212.495 369.83 212.495 387 213 C387 240.39 387 267.78 387 296 C401.52 296 416.04 296 431 296 C431 442.52 431 589.04 431 740 C322.76 740 214.52 740 103 740 C103 743.3 103 746.6 103 750 C-65.96 750 -234.92 750 -409 750 C-409 748.68 -409 747.36 -409 746 C-241.36 746 -73.72 746 99 746 C99 742.7 99 739.4 99 736 C207.24 736 315.48 736 427 736 C427 592.12 427 448.24 427 300 C412.48 300 397.96 300 383 300 C383 272.61 383 245.22 383 217 C373.1 217 363.2 217 353 217 C343.5952617 211.75242863 343.5952617 211.75242863 339 207 C337.68 206.01 336.36 205.02 335 204 C335 156.15 335 108.3 335 59 C224.45 59 113.9 59 0 59 C0 39.53 0 20.06 0 0 Z " fill="#060606" transform="translate(567,45)"/>
<path d="M0 0 C8.91 0 17.82 0 27 0 C27 71.61 27 143.22 27 217 C18.09 217 9.18 217 0 217 C0 145.39 0 73.78 0 0 Z " fill="#FAFAFA" transform="translate(568,128)"/>
<path d="M0 0 C102.3 0 204.6 0 310 0 C310 132 310 264 310 400 C207.7 400 105.4 400 0 400 C0 268 0 136 0 0 Z M4 4 C4 133.36 4 262.72 4 396 C103.66 396 203.32 396 306 396 C306 266.64 306 137.28 306 4 C206.34 4 106.68 4 4 4 Z " fill="#0A0A0A" transform="translate(664,364)"/>
<path d="M0 0 C88.77 0 177.54 0 269 0 C269.33 42.9 269.66 85.8 270 130 C274.62 133.96 279.24 137.92 284 142 C286.31 143.98 288.62 145.96 291 148 C299.25 148.33 307.5 148.66 316 149 C316 171.44 316 193.88 316 217 C211.72 217 107.44 217 0 217 C0 145.39 0 73.78 0 0 Z M4 4 C4 72.97 4 141.94 4 213 C105.64 213 207.28 213 312 213 C312 193.53 312 174.06 312 154 C305.07 154 298.14 154 291 154 C291 153.34 291 152.68 291 152 C289.34262648 150.98467208 287.67375389 149.98809195 286 149 C284.19451507 147.45629689 282.42526058 145.86956269 280.6875 144.25 C279.25664063 142.92935547 279.25664063 142.92935547 277.796875 141.58203125 C276.87390625 140.72996094 275.9509375 139.87789062 275 139 C273.48518233 137.63910735 271.9651606 136.28395998 270.4375 134.9375 C269.81746094 134.38964844 269.19742187 133.84179688 268.55859375 133.27734375 C267.01215689 131.91397052 267.01215689 131.91397052 265 131 C265 89.09 265 47.18 265 4 C178.87 4 92.74 4 4 4 Z " fill="#070707" transform="translate(614,128)"/>
<path d="M0 0 C25.08 0 50.16 0 76 0 C76 135.63 76 271.26 76 411 C-84.71 411 -245.42 411 -411 411 C-411 409.68 -411 408.36 -411 407 C-251.61 407 -92.22 407 72 407 C72 274.01 72 141.02 72 4 C49.56 4 27.12 4 4 4 C4 6.97 4 9.94 4 13 C2.68 13 1.36 13 0 13 C0 8.71 0 4.42 0 0 Z " fill="#0D0D0D" transform="translate(569,364)"/>
<path d="M0 0 C1.32 0 2.64 0 4 0 C4 18.15 4 36.3 4 55 C114.55 55 225.1 55 339 55 C339.33 103.51 339.66 152.02 340 202 C343.96 204.97 347.92 207.94 352 211 C352.33 211.33 352.66 211.66 353 212 C355.51880517 212.15988491 358.01342266 212.25934225 360.53515625 212.31640625 C361.66503212 212.3475779 361.66503212 212.3475779 362.81773376 212.37937927 C365.2325599 212.44495425 367.64749798 212.50379621 370.0625 212.5625 C371.69597529 212.6056777 373.3294391 212.64929173 374.96289062 212.69335938 C378.97514464 212.80064362 382.98751164 212.90188821 387 213 C387 213.33 387 213.66 387 214 C376.11 214 365.22 214 354 214 C353.67 214.99 353.34 215.98 353 217 C350.74957738 215.39642346 348.49964941 213.79216064 346.25 212.1875 C345.29867187 211.50977539 345.29867187 211.50977539 344.328125 210.81835938 C343.709375 210.37685547 343.090625 209.93535156 342.453125 209.48046875 C341.88754883 209.07723389 341.32197266 208.67399902 340.73925781 208.25854492 C338.80932267 206.86202392 336.90576734 205.42932551 335 204 C335 156.15 335 108.3 335 59 C224.45 59 113.9 59 0 59 C0 39.53 0 20.06 0 0 Z " fill="#141414" transform="translate(567,45)"/>
<path d="M0 0 C8.91 0 17.82 0 27 0 C27 71.61 27 143.22 27 217 C18.09 217 9.18 217 0 217 C0 145.39 0 73.78 0 0 Z M4 4 C4 72.97 4 141.94 4 213 C10.27 213 16.54 213 23 213 C23 144.03 23 75.06 23 4 C16.73 4 10.46 4 4 4 Z " fill="#0A0A0A" transform="translate(568,128)"/>
<path d="M0 0 C1.32 0 2.64 0 4 0 C4 109.56 4 219.12 4 332 C2.68 332 1.36 332 0 332 C0 222.44 0 112.88 0 0 Z " fill="#090909" transform="translate(537,45)"/>
</svg>
