<svg version="1.1" id="Layer_1" xmlns="http://www.w3.org/2000/svg" xmlns:xlink="http://www.w3.org/1999/xlink" x="0px" y="0px"
	 width="100%" viewBox="0 0 1200 700" enable-background="new 0 0 1200 700" xml:space="preserve">
<path fill="none" opacity="1.000000" stroke="#000000" stroke-linecap="round" stroke-linejoin="round" stroke-width="5.000000"
	d="
M905.500000,303.000031 
	C896.000000,293.500031 886.611938,283.883728 876.934143,274.568481 
	C873.898071,271.646149 873.133240,268.514984 872.902161,264.505646 
	C871.634094,242.511078 872.763000,220.471832 871.736755,198.512299 
	C871.143799,185.822861 871.462036,173.163162 870.984009,160.500610 
	C870.936646,159.246170 870.665039,158.000214 870.447266,156.375000 
	C767.167175,156.375000 663.833801,156.375000 560.250000,156.375000 
	C560.250000,229.833328 560.250000,303.166656 560.250000,376.750000 
	C691.833313,376.750000 823.166687,376.750000 954.770020,376.750000 
	C955.975830,352.807861 952.967407,329.178864 954.149536,305.000000 
	C949.345886,305.000000 945.172913,305.000000 941.000000,305.000000 
	C932.833313,305.000000 924.665527,304.919708 916.500549,305.036804 
	C912.887390,305.088593 909.360596,304.975891 906.000000,303.500000 
"/>
<path fill="none" opacity="1.000000" stroke="#000000" stroke-linecap="round" stroke-linejoin="round" stroke-width="5.000000"
	d="
M1027.500000,499.500000 
	C1022.233398,500.901123 1016.770203,499.156769 1011.000000,500.571899 
	C1011.000000,539.498596 1011.000000,578.501404 1011.000000,618.166870 
	C886.493713,616.996704 762.506165,619.983643 638.125000,618.843262 
	C638.125000,624.988708 638.125000,630.500000 638.125000,635.864624 
	C635.058594,636.816711 632.309509,637.021179 629.500000,637.020020 
	C566.833313,636.993896 504.150513,636.108154 441.504395,637.242859 
	C374.661285,638.453613 307.831787,637.364014 241.000198,638.019958 
	C240.165604,638.028198 239.180908,637.571167 238.500000,638.500000 
"/>
<path fill="none" opacity="1.000000" stroke="#000000" stroke-linecap="round" stroke-linejoin="round" stroke-width="5.000000"
	d="
M486.000000,64.000000 
	C486.000000,84.666664 486.000000,105.333336 486.000000,126.750000 
	C625.748230,126.750000 765.500000,126.750000 904.894348,126.750000 
	C906.276367,129.577087 905.989197,131.811203 905.992065,134.000015 
	C906.008362,146.499985 905.532898,159.021210 906.099060,171.495499 
	C907.211182,195.995605 906.787537,220.498245 907.102844,244.998672 
	C907.182312,251.172302 908.854370,256.648743 913.740723,261.748413 
	C919.785828,268.057404 925.929626,270.525726 934.507019,270.168243 
	C949.148254,269.558014 963.833374,269.977112 978.499878,270.031647 
	C980.160095,270.037811 981.932068,269.345703 983.632874,270.891663 
	C985.018127,305.817261 985.225281,341.159271 984.958618,377.000000 
	C993.826660,377.000000 1002.173340,377.000000 1010.290894,377.000000 
	C1011.335022,379.272583 1010.983948,381.161713 1010.985474,383.000000 
	C1011.006836,409.333344 1011.045227,435.666809 1010.962830,461.999878 
	C1010.945801,467.426605 1011.576965,468.320312 1016.998962,467.983185 
	C1020.497864,467.765625 1024.044678,468.604401 1027.500000,467.500000 
"/>
<path fill="none" opacity="1.000000" stroke="#000000" stroke-linecap="round" stroke-linejoin="round" stroke-width="5.000000"
	d="
M486.500000,376.500000 
	C493.812042,377.603729 501.167480,376.788605 508.500671,376.973663 
	C513.835754,377.108307 519.177063,377.000000 524.750000,377.000000 
	C524.750000,303.250000 524.750000,230.000000 524.750000,156.805084 
	C520.427673,155.852692 490.973969,155.658905 486.000000,156.593994 
	C486.000000,229.665909 486.000000,302.832947 486.000000,376.000000 
"/>
<path fill="none" opacity="1.000000" stroke="#000000" stroke-linecap="round" stroke-linejoin="round" stroke-width="5.000000"
	d="
M239.000000,612.000000 
	C265.333344,612.000000 291.684326,612.622986 317.996490,611.876221 
	C381.664246,610.069397 445.348328,612.171814 508.994049,610.735657 
	C539.674744,610.043335 570.336182,610.593811 600.999817,609.991394 
	C602.173523,609.968384 603.344727,609.818665 604.750000,609.709961 
	C604.750000,585.250000 604.750000,561.000000 604.750000,536.560669 
	C599.046387,535.479980 593.501282,536.221619 588.000000,536.000000 
"/>
<path fill="none" opacity="1.000000" stroke="#000000" stroke-linecap="round" stroke-linejoin="round" stroke-width="5.000000"
	d="
M445.000000,64.000000 
	C445.000000,180.000000 445.000000,296.000000 445.000000,412.000000 
"/>
<path fill="none" opacity="1.000000" stroke="#000000" stroke-linecap="round" stroke-linejoin="round" stroke-width="5.000000"
	d="
M588.000000,506.000000 
	C593.505005,506.000000 599.010071,506.000000 604.750000,506.000000 
	C604.750000,472.500000 604.750000,439.500000 604.750000,406.250000 
	C565.166687,406.250000 525.833313,406.250000 486.594269,406.250000 
	C485.664978,408.272583 486.113007,410.161804 486.000000,412.000000 
"/>
<path fill="none" opacity="1.000000" stroke="#000000" stroke-linecap="round" stroke-linejoin="round" stroke-width="5.000000"
	d="
M638.000000,406.000000 
	C635.498657,406.415985 636.006714,408.359253 636.006470,410.000000 
	C635.998779,470.666656 636.000732,531.333313 635.992737,592.000000 
	C635.992615,592.878296 635.901978,593.752930 637.218872,594.750000 
	C751.833313,594.750000 867.166687,594.750000 982.750000,594.750000 
	C982.750000,531.833313 982.750000,469.166656 982.750000,406.000000 
	C867.833801,406.000000 753.166931,406.000000 638.500000,406.000000 
"/>
</svg>